# xmcd
# 
# Track frame offsets:
#     150
#     13618
#     27069
#     40433
#     51236
#     61538
#     73204
#     85022
#     96386
#     108320
#     122519
#     136156
#     147364
#     158330
#     170378
#     181714
# 
# Disc length: 2576
# 
# Revision: 0
# Processed by: cddbd v1.5.2PL0 Copyright (c) Steve Scherf et al.
# Submitted via: fre:ac v1.0.17
# 
DISCID=c70a0e10
DTITLE=John Lee Hooker - The Journey Disc 4
DYEAR=0
DGENRE=Blues
TTITLE0=Too Much Boogie
TTITLE1=Need Somebody
TTITLE2=Please Take Me Back
TTITLE3=Gotta Boogie
TTITLE4=Stuttering Blues
TTITLE5=Pouring Down Rain
TTITLE6=Love My Baby
TTITLE7=Misbelieving Baby
TTITLE8=Wobbling Baby
TTITLE9=Goin' South
TTITLE10=My Baby Don't Love Me
TTITLE11=I Ain't Got Nobody
TTITLE12=Real Real Gone
TTITLE13=Guitar Lovin' Man
TTITLE14=Blue Monday
TTITLE15=My Baby Put Me Down
EXTD=
EXTT0=
EXTT1=
EXTT2=
EXTT3=
EXTT4=
EXTT5=
EXTT6=
EXTT7=
EXTT8=
EXTT9=
EXTT10=
EXTT11=
EXTT12=
EXTT13=
EXTT14=
EXTT15=
PLAYORDER=
